<svg id="Layer_1" data-name="Layer 1" xmlns="http://www.w3.org/2000/svg" viewBox="0 0 298.98 298.98">
  <defs>
    <style>
      .cls-1 {
        fill: #fff;
      }

      .cls-2, .cls-3 {
        fill: #9068be;
      }

      .cls-2 {
        opacity: 0.1;
      }
    </style>
  </defs>
  <title>Account Toggle</title>
  <rect class="cls-1" width="298.98" height="298.98"/>
  <path class="cls-1" d="M94.92,189.37l64.9-15.11L178.28,71.87l104,130.66a142.1,142.1,0,1,0-138.54,89.72L75.12,205Z"/>
  <path class="cls-2" d="M282.31,202.54l-104-130.66L159.82,174.26l-64.9,15.11L75.12,205l68.65,87.25c2.11,0.09,4.23.15,6.37,0.15A142.12,142.12,0,0,0,282.31,202.54Z"/>
  <path class="cls-3" d="M205.29,175.35c-29.19-.7-32.71-6-34.11-6.68s-2.81-14.42-2.81-14.42,18,0.7,21.88-40.79c3.85-41.27-20.27-50.89-37.27-51h0c-18,.1-41.41,9.72-37.56,51,3.87,41.5,21.69,40.79,21.69,40.79s-1.46,13.72-2.87,14.42-5,6-34.14,6.68-29.2,25-25,29.62,25,19,77,18h1.11c52,1,72.8-13.44,77-18S234.48,176.05,205.29,175.35Z"/>
</svg>
